<svg id="Layer_1" data-name="Layer 1" xmlns="http://www.w3.org/2000/svg" viewBox="0 0 346.06 98.87"><defs><style>.cls-1{fill:#fff;}</style></defs><title>App_Gallery_Badge_FR_Full_White_Transparent</title><path class="cls-1" d="M370.2,120.3H55a15.45,15.45,0,0,1-15.43-15.43v-68A15.45,15.45,0,0,1,55,21.43H370.2a15.45,15.45,0,0,1,15.43,15.44v68A15.45,15.45,0,0,1,370.2,120.3ZM55,23.63A13.25,13.25,0,0,0,41.77,36.87v68A13.25,13.25,0,0,0,55,118.1H370.2a13.25,13.25,0,0,0,13.23-13.23v-68A13.25,13.25,0,0,0,370.2,23.63Z" transform="translate(-39.57 -21.43)"/><path class="cls-1" d="M167.43,91.15H155.59l-2.9,7.92h-5.21l11.6-29.58H164l11.86,29.58h-5.47Zm-10.35-4h8.84l-3.16-8.48q-.66-1.75-1.29-3.87c-.38,1.25-.8,2.53-1.25,3.83Z" transform="translate(-39.57 -21.43)"/><path class="cls-1" d="M179.05,82.43c0-1.63-.05-3.43-.16-5.39h4.73a23.29,23.29,0,0,1,.37,2.8,8.93,8.93,0,0,1,6.74-3.21,7.78,7.78,0,0,1,4.08,1.12,7.9,7.9,0,0,1,3,3.51A14,14,0,0,1,199,87.35a15.08,15.08,0,0,1-1.32,6.6A9.49,9.49,0,0,1,194,98.09a10.52,10.52,0,0,1-5.48,1.41,13.6,13.6,0,0,1-4.43-.75v9.1l-5,.43Zm13.26,11.26a10,10,0,0,0,1.54-6q0-3.69-1.27-5.36a4.08,4.08,0,0,0-3.4-1.67,5.54,5.54,0,0,0-2.72.7,10.09,10.09,0,0,0-2.37,1.86V95a7.9,7.9,0,0,0,1.76.58,9.61,9.61,0,0,0,2,.22A5.25,5.25,0,0,0,192.31,93.69Z" transform="translate(-39.57 -21.43)"/><path class="cls-1" d="M203.9,82.43c0-1.63-.06-3.43-.17-5.39h4.74a23.29,23.29,0,0,1,.37,2.8,8.91,8.91,0,0,1,6.74-3.21,7.78,7.78,0,0,1,4.08,1.12,7.9,7.9,0,0,1,3,3.51,14,14,0,0,1,1.16,6.09,15.08,15.08,0,0,1-1.32,6.6,9.45,9.45,0,0,1-3.69,4.14,10.48,10.48,0,0,1-5.47,1.41,13.56,13.56,0,0,1-4.43-.75v9.1l-5,.43Zm13.26,11.26a10,10,0,0,0,1.54-6c0-2.46-.43-4.25-1.27-5.36A4.1,4.1,0,0,0,214,80.61a5.5,5.5,0,0,0-2.71.7,10.09,10.09,0,0,0-2.37,1.86V95a7.73,7.73,0,0,0,1.76.58,9.53,9.53,0,0,0,2,.22A5.25,5.25,0,0,0,217.16,93.69Z" transform="translate(-39.57 -21.43)"/><path class="cls-1" d="M234.2,97.67a12.3,12.3,0,0,1-5-5.17,17,17,0,0,1-1.75-8,16.57,16.57,0,0,1,2-8.47,13,13,0,0,1,5.5-5.22,17.12,17.12,0,0,1,7.81-1.75,20.83,20.83,0,0,1,4.87.56,21.42,21.42,0,0,1,4.32,1.54l-1.29,3.88A17.82,17.82,0,0,0,243,73.16a10.7,10.7,0,0,0-5.4,1.32A9,9,0,0,0,234,78.35a13.69,13.69,0,0,0-1.28,6.17,14.89,14.89,0,0,0,1,5.61A8.3,8.3,0,0,0,236.8,94a9.49,9.49,0,0,0,5.38,1.43,17.16,17.16,0,0,0,2.94-.25,15.48,15.48,0,0,0,2.76-.71v-6H241V84.58h11.74V97a26.09,26.09,0,0,1-5.32,1.82,25.11,25.11,0,0,1-5.54.63A15.65,15.65,0,0,1,234.2,97.67Z" transform="translate(-39.57 -21.43)"/><path class="cls-1" d="M271.79,99.07a18.26,18.26,0,0,1-.35-2.92,9.85,9.85,0,0,1-3,2.36,9,9,0,0,1-4.22,1,8,8,0,0,1-3.46-.74,5.79,5.79,0,0,1-2.48-2.25,6.92,6.92,0,0,1-.92-3.67,6.29,6.29,0,0,1,2.31-5.11c1.54-1.27,4.1-1.91,7.7-1.91a28.11,28.11,0,0,1,4,.29v-.43c0-2-.42-3.32-1.25-4.12a5,5,0,0,0-3.57-1.19,14.05,14.05,0,0,0-3.45.47,18.39,18.39,0,0,0-3.23,1.12l-.79-3.67a18.9,18.9,0,0,1,3.55-1.13,20.58,20.58,0,0,1,4.65-.51,12.14,12.14,0,0,1,4.86.87,6.36,6.36,0,0,1,3.13,3,12.19,12.19,0,0,1,1.12,5.69v8.76c0,.91.05,2.29.16,4.14Zm-3-4.08a8,8,0,0,0,2.58-1.88V89A32.68,32.68,0,0,0,268,88.8c-2.08,0-3.52.34-4.32,1a3.39,3.39,0,0,0-1.19,2.73,3.11,3.11,0,0,0,.86,2.42,3.41,3.41,0,0,0,2.36.78A7.08,7.08,0,0,0,268.76,95Z" transform="translate(-39.57 -21.43)"/><path class="cls-1" d="M282.44,93.78v-26l5-.41V92.89a3.17,3.17,0,0,0,.48,2,1.84,1.84,0,0,0,1.52.58,5.83,5.83,0,0,0,1.33-.23l.59,3.62a9,9,0,0,1-1.75.46,12.35,12.35,0,0,1-1.95.17Q282.44,99.48,282.44,93.78Z" transform="translate(-39.57 -21.43)"/><path class="cls-1" d="M295,93.78v-26l5-.41V92.89a3.17,3.17,0,0,0,.48,2,1.86,1.86,0,0,0,1.52.58,5.66,5.66,0,0,0,1.33-.23l.59,3.62a8.68,8.68,0,0,1-1.74.46,12.45,12.45,0,0,1-1.95.17Q295,99.48,295,93.78Z" transform="translate(-39.57 -21.43)"/><path class="cls-1" d="M325.69,88.7H311.27c.24,4.61,2.43,6.92,6.6,6.92a13.51,13.51,0,0,0,3.17-.38,18.05,18.05,0,0,0,3.12-1l1.1,3.45a18.71,18.71,0,0,1-8.31,1.8A12.08,12.08,0,0,1,311,98.15a8.47,8.47,0,0,1-3.63-3.81,13.76,13.76,0,0,1-1.21-6A14.2,14.2,0,0,1,307.48,82a9.36,9.36,0,0,1,3.58-4,10.1,10.1,0,0,1,5.3-1.39,8.9,8.9,0,0,1,5.21,1.46A8.77,8.77,0,0,1,324.68,82a13.92,13.92,0,0,1,1,5.37Zm-4.92-3.21a6.32,6.32,0,0,0-1.33-3.95,4.06,4.06,0,0,0-3.16-1.31,4.27,4.27,0,0,0-3.2,1.32,7.07,7.07,0,0,0-1.66,3.94Z" transform="translate(-39.57 -21.43)"/><path class="cls-1" d="M330.59,82.57c0-1.21,0-3-.16-5.53h4.71c.08.61.16,1.35.24,2.2s.12,1.54.15,2.07a18.25,18.25,0,0,1,1.73-2.44,6.84,6.84,0,0,1,2-1.61,5.19,5.19,0,0,1,2.58-.63,7.27,7.27,0,0,1,2,.25l-.63,4.37a5.6,5.6,0,0,0-1.64-.23,5.41,5.41,0,0,0-3.1.91,12.7,12.7,0,0,0-2.84,3V99.07h-5Z" transform="translate(-39.57 -21.43)"/><path class="cls-1" d="M345.19,108.09a12.84,12.84,0,0,1-1.82-.44l.92-3.68a12,12,0,0,0,1.29.28,8.44,8.44,0,0,0,1.47.13q3.34,0,5-4.31l.33-.81L344.27,77h5.41l4.08,12.42a39.25,39.25,0,0,1,1.29,4.88q.57-2.4,1.35-4.78L360.54,77h5.09l-8.11,22.32a22.9,22.9,0,0,1-2.47,5.1,8.53,8.53,0,0,1-3.13,2.88,9.33,9.33,0,0,1-4.36.94A13.55,13.55,0,0,1,345.19,108.09Z" transform="translate(-39.57 -21.43)"/><path class="cls-1" d="M110.87,37.54H81.76C68,37.54,63,42.55,63,56.27V85.38c0,13.71,5,18.73,18.72,18.73h29.11c13.71,0,18.74-5,18.74-18.73V56.27C129.6,42.55,124.58,37.54,110.87,37.54ZM78,79.53H76.21V76h-4v3.53H70.45v-8.7h1.77v3.51h4V70.83H78Zm10-3.79c0,2.49-1.37,3.92-3.77,3.92s-3.73-1.4-3.73-3.85v-5h1.77v4.92c0,1.45.7,2.23,2,2.23s2-.75,2-2.17v-5h1.76ZM85.23,48.67H86.8a9.52,9.52,0,0,0,19,0h1.56a11.08,11.08,0,1,1-22.16,0Zm11,30.86-.79-1.82h-4l-.79,1.82h-1.8l3.83-8.7h1.56L98,79.53Zm11.12,0h-1.48l-2-5.71-2,5.71H100.4l-3-8.7h1.88l1.92,6,2-6h1.44l2,6,1.92-6h1.83Zm11,0h-6.57v-8.7h6.4v1.59h-4.66V74.2h3.21v1.59h-3.21v2.15h4.83Zm3.85,0h-1.74V70.83h1.74Z" transform="translate(-39.57 -21.43)"/><polygon class="cls-1" points="52.5 54.71 55.17 54.71 53.83 51.6 52.5 54.71"/><path class="cls-1" d="M148.85,41.75h5.26a10.7,10.7,0,0,1,4.45.85,6.13,6.13,0,0,1,2.83,2.53,8,8,0,0,1,1,4.1,9.31,9.31,0,0,1-1,4.41,7.46,7.46,0,0,1-2.94,3,9,9,0,0,1-4.53,1.1h-5Zm4.85,13.84a6.05,6.05,0,0,0,3.2-.8,5,5,0,0,0,1.95-2.22,7.56,7.56,0,0,0,.66-3.24,5.37,5.37,0,0,0-1.42-4,5.84,5.84,0,0,0-4.21-1.36h-2.27V55.59Z" transform="translate(-39.57 -21.43)"/><path class="cls-1" d="M165.59,41.75H175L174.76,44h-6.4v4.41h6v2.14h-6v4.89h6.74l-.23,2.3h-9.28Zm2.79-1.19,2.88-3.4,2.91.27L170.1,40.8Z" transform="translate(-39.57 -21.43)"/><path class="cls-1" d="M180.5,57a6.26,6.26,0,0,1-2.71-2.75,9.18,9.18,0,0,1-.94-4.32,9.79,9.79,0,0,1,1-4.5,6.85,6.85,0,0,1,2.74-2.92,8.08,8.08,0,0,1,4.11-1,9.75,9.75,0,0,1,2.51.31,9.32,9.32,0,0,1,2.17.83l-.72,2.09a8.22,8.22,0,0,0-3.82-1,5.07,5.07,0,0,0-2.79.74,4.62,4.62,0,0,0-1.73,2.12,8,8,0,0,0-.59,3.22,7.88,7.88,0,0,0,.56,3.11A4.57,4.57,0,0,0,182,55a5.49,5.49,0,0,0,3,.77,9.38,9.38,0,0,0,3.92-.93l.63,2a10.29,10.29,0,0,1-2.18.8,11.75,11.75,0,0,1-2.64.28A8.93,8.93,0,0,1,180.5,57Z" transform="translate(-39.57 -21.43)"/><path class="cls-1" d="M194.68,57A6.69,6.69,0,0,1,192,54.16a9.21,9.21,0,0,1-.93-4.23,9.43,9.43,0,0,1,1-4.43,6.89,6.89,0,0,1,2.85-2.93,8.92,8.92,0,0,1,4.4-1,8.25,8.25,0,0,1,4.17,1,6.64,6.64,0,0,1,2.66,2.82,9.21,9.21,0,0,1,.92,4.2,9.58,9.58,0,0,1-1,4.48A7,7,0,0,1,203.2,57a8.85,8.85,0,0,1-4.35,1A8.31,8.31,0,0,1,194.68,57Zm7.17-2a4.82,4.82,0,0,0,1.74-2.15,8,8,0,0,0,.57-3.12,8.69,8.69,0,0,0-.51-3.08A4.61,4.61,0,0,0,202,44.52a5.5,5.5,0,0,0-5.73,0,5,5,0,0,0-1.76,2.18,7.6,7.6,0,0,0-.59,3,8.2,8.2,0,0,0,.56,3.1A4.71,4.71,0,0,0,196.2,55a4.81,4.81,0,0,0,2.82.8A5,5,0,0,0,201.85,55Z" transform="translate(-39.57 -21.43)"/><path class="cls-1" d="M213.13,57.31a5,5,0,0,1-2.26-2,5.88,5.88,0,0,1-.8-3.12V41.75h2.74v10a4.09,4.09,0,0,0,1,2.93,3.77,3.77,0,0,0,2.83,1,3.56,3.56,0,0,0,2.82-1,4.46,4.46,0,0,0,.89-3V41.75h2.74V52.18a6,6,0,0,1-.78,3.14,5,5,0,0,1-2.23,2,8,8,0,0,1-3.44.69A8.11,8.11,0,0,1,213.13,57.31Z" transform="translate(-39.57 -21.43)"/><path class="cls-1" d="M225,41.75h3L232.14,53c.07.21.16.51.27.88s.2.72.27,1c.25-.89.45-1.53.58-1.9l4-11.22h2.81l-6.16,16h-2.75Z" transform="translate(-39.57 -21.43)"/><path class="cls-1" d="M242.26,41.75h5a6.67,6.67,0,0,1,4.15,1.1A3.72,3.72,0,0,1,252.83,46a4.77,4.77,0,0,1-.51,2.24,5,5,0,0,1-1.26,1.57,5.52,5.52,0,0,1-1.55.91l4.92,7.07h-3.2l-4.17-6.35h-2v6.35h-2.76Zm4.33,7.58a3.89,3.89,0,0,0,1.78-.39,3,3,0,0,0,1.21-1.11,3.12,3.12,0,0,0,.43-1.65,2,2,0,0,0-.76-1.77,3.76,3.76,0,0,0-2.23-.56h-2v5.48Z" transform="translate(-39.57 -21.43)"/><path class="cls-1" d="M256.76,41.75h9.43L265.93,44h-6.41v4.41h6v2.14h-6v4.89h6.75l-.23,2.3h-9.28Z" transform="translate(-39.57 -21.43)"/><path class="cls-1" d="M280.23,55.44,280,57.77H268.1V56L276.35,44h-7.78l.24-2.28h11.08l-.23,1.77-8.24,11.92Z" transform="translate(-39.57 -21.43)"/><path class="cls-1" d="M291.39,57.69a10.53,10.53,0,0,1-2.34-.81l.86-2.18a10.87,10.87,0,0,0,2.06.77,8.49,8.49,0,0,0,2.06.29,3.07,3.07,0,0,0,2.06-.61,2,2,0,0,0,.7-1.6,2,2,0,0,0-.42-1.26,3.83,3.83,0,0,0-1.09-.88c-.44-.24-1.08-.54-1.9-.9a13.48,13.48,0,0,1-2.14-1.13A4.66,4.66,0,0,1,289.86,48a3.74,3.74,0,0,1-.51-2,4.22,4.22,0,0,1,.66-2.37,4.37,4.37,0,0,1,1.87-1.53,6.94,6.94,0,0,1,2.79-.53,10.77,10.77,0,0,1,2.37.27,7.71,7.71,0,0,1,1.95.68l-.53,2.24a8.68,8.68,0,0,0-3.77-1,3.46,3.46,0,0,0-1.88.46,1.57,1.57,0,0,0-.72,1.42,1.7,1.7,0,0,0,.36,1.09,3.41,3.41,0,0,0,1.05.83c.46.26,1.16.59,2.09,1a13.67,13.67,0,0,1,2.17,1.18,4.42,4.42,0,0,1,1.3,1.43,4.1,4.1,0,0,1,.46,2,4.78,4.78,0,0,1-.67,2.59,4.16,4.16,0,0,1-1.91,1.64,7.29,7.29,0,0,1-3,.56A11.42,11.42,0,0,1,291.39,57.69Z" transform="translate(-39.57 -21.43)"/><path class="cls-1" d="M305.54,57.31a5,5,0,0,1-2.26-2,5.88,5.88,0,0,1-.8-3.12V41.75h2.74v10a4.09,4.09,0,0,0,1,2.93,3.77,3.77,0,0,0,2.83,1,3.55,3.55,0,0,0,2.82-1,4.46,4.46,0,0,0,.89-3V41.75h2.74V52.18a6,6,0,0,1-.78,3.14,5,5,0,0,1-2.23,2A8,8,0,0,1,309,58,8.11,8.11,0,0,1,305.54,57.31Z" transform="translate(-39.57 -21.43)"/><path class="cls-1" d="M319.5,41.75h5a6.72,6.72,0,0,1,4.16,1.1A3.75,3.75,0,0,1,330.08,46a4.77,4.77,0,0,1-.51,2.24,5,5,0,0,1-1.26,1.57,5.66,5.66,0,0,1-1.55.91l4.92,7.07h-3.21l-4.17-6.35h-2v6.35H319.5Zm4.34,7.58a3.92,3.92,0,0,0,1.78-.39,2.93,2.93,0,0,0,1.2-1.11,3.13,3.13,0,0,0,.44-1.65,2,2,0,0,0-.77-1.77,3.75,3.75,0,0,0-2.22-.56h-2v5.48Z" transform="translate(-39.57 -21.43)"/></svg>