<?xml version="1.0" encoding="utf-8"?>
<!-- Generator: Adobe Illustrator 21.0.0, SVG Export Plug-In . SVG Version: 6.00 Build 0)  -->
<svg version="1.1" id="US_UK_Download_on_the" xmlns="http://www.w3.org/2000/svg" xmlns:xlink="http://www.w3.org/1999/xlink" width="123.3" height="36.1" 
	 x="0px" y="0px" viewBox="0 0 123.3 36.1" style="enable-background:new 0 0 123.3 36.1;" xml:space="preserve">
<style type="text/css">
	.st0{fill:none;stroke:#FFFFFF;stroke-miterlimit:10;}
	.st1{fill:#FFFFFF;}
</style>
<title>Plan de travail 1</title>
<path class="st0" d="M122.8,32.1c0,1.9-1.6,3.5-3.5,3.5c0,0,0,0,0,0H4c-1.9,0-3.5-1.6-3.5-3.5V4c0-1.9,1.6-3.5,3.5-3.5h115.3
	c1.9,0,3.5,1.6,3.5,3.5V32.1z"/>
<path class="st1" d="M27.4,17.9c0-1.8,1-3.5,2.5-4.5c-1-1.4-2.6-2.3-4.3-2.3c-1.8-0.2-3.6,1.1-4.5,1.1s-2.4-1.1-3.9-1
	c-2,0.1-3.8,1.2-4.8,2.9c-2.1,3.6-0.5,8.9,1.5,11.8c1,1.4,2.2,3,3.7,3s2-1,3.9-1s2.3,1,3.9,0.9s2.6-1.4,3.6-2.9
	c0.7-1,1.3-2.1,1.6-3.3C28.6,21.9,27.3,19.9,27.4,17.9z"/>
<path class="st1" d="M24.4,9.1c0.9-1.1,1.3-2.4,1.2-3.8c-1.3,0.1-2.6,0.8-3.5,1.8c-0.9,1-1.3,2.3-1.2,3.6
	C22.3,10.8,23.6,10.2,24.4,9.1z"/>
<path class="st1" d="M49,28.6h-2.1L45.7,25h-4l-1.1,3.6h-2l3.9-12.2H45L49,28.6z M45.4,23.5l-1-3.2c-0.1-0.3-0.3-1.1-0.6-2.3l0,0
	c-0.1,0.5-0.3,1.3-0.6,2.3l-1,3.2H45.4z"/>
<path class="st1" d="M59.1,24.1c0.1,1.3-0.4,2.6-1.2,3.6c-0.7,0.8-1.7,1.2-2.7,1.2c-1,0.1-2-0.4-2.5-1.3l0,0v4.6h-2v-9.5
	c0-1,0-1.9-0.1-2.9h1.7l0.1,1.4l0,0c1-1.6,3.2-2.1,4.8-1c0.3,0.2,0.6,0.4,0.8,0.7C58.7,21.8,59.1,22.9,59.1,24.1z M57.1,24.2
	c0-0.8-0.2-1.5-0.6-2.1c-0.4-0.6-1-0.9-1.7-0.9c-0.5,0-1,0.2-1.3,0.5c-0.4,0.3-0.7,0.8-0.8,1.3c-0.1,0.2-0.1,0.4-0.1,0.6V25
	c0,0.6,0.2,1.2,0.6,1.6c0.4,0.4,0.9,0.7,1.5,0.7c0.7,0,1.3-0.3,1.7-0.9C56.9,25.8,57.1,25,57.1,24.2z"/>
<path class="st1" d="M69.2,24.1c0.1,1.3-0.4,2.6-1.2,3.6c-0.7,0.8-1.7,1.2-2.7,1.2c-1,0.1-2-0.4-2.5-1.3l0,0v4.6h-2v-9.5
	c0-1,0-1.9-0.1-2.9h1.7l0.1,1.4l0,0c1-1.6,3.2-2.1,4.8-1c0.3,0.2,0.5,0.4,0.8,0.7C68.9,21.8,69.3,22.9,69.2,24.1z M67.2,24.2
	c0-0.8-0.2-1.5-0.6-2.1c-0.7-0.9-2-1.1-2.9-0.5c0,0-0.1,0-0.1,0.1c-0.4,0.3-0.7,0.8-0.8,1.3c-0.1,0.2-0.1,0.4-0.1,0.6V25
	c0,0.6,0.2,1.2,0.6,1.6c0.4,0.4,0.9,0.7,1.5,0.7c0.7,0,1.3-0.3,1.7-0.9C67,25.8,67.3,25,67.2,24.2L67.2,24.2z"/>
<path class="st1" d="M80.6,25.2c0,1-0.4,1.9-1.1,2.5c-0.9,0.8-2.1,1.1-3.3,1.1c-1.1,0-2.2-0.2-3.1-0.8l0.5-1.6
	c0.9,0.5,1.8,0.8,2.8,0.8c0.6,0,1.2-0.1,1.7-0.5c0.4-0.3,0.6-0.8,0.6-1.3c0-0.5-0.2-0.9-0.5-1.3c-0.5-0.4-1.1-0.8-1.7-1
	c-2.1-0.8-3.2-2-3.2-3.5c0-1,0.4-1.9,1.1-2.5c0.8-0.7,1.9-1,3-1c1,0,1.9,0.2,2.8,0.6l-0.5,1.6c-0.7-0.4-1.5-0.6-2.3-0.6
	c-0.6,0-1.2,0.1-1.6,0.5c-0.6,0.6-0.6,1.5-0.1,2.2c0,0,0.1,0.1,0.1,0.1c0.5,0.4,1.1,0.7,1.8,1c0.9,0.3,1.7,0.8,2.3,1.5
	C80.4,23.6,80.6,24.4,80.6,25.2z"/>
<path class="st1" d="M87,21.3h-2.1v4.3c0,1.1,0.4,1.6,1.2,1.6c0.3,0,0.6,0,0.9-0.1l0.1,1.5c-0.5,0.2-1,0.2-1.5,0.2
	c-0.7,0-1.3-0.2-1.8-0.7c-0.5-0.7-0.7-1.5-0.7-2.4v-4.5h-1.3v-1.5h1.3v-1.6l1.9-0.6v2.2H87V21.3z"/>
<path class="st1" d="M96.8,24.1c0,1.2-0.4,2.4-1.2,3.3c-0.8,0.9-2,1.4-3.2,1.3c-1.2,0.1-2.3-0.4-3.1-1.3c-0.8-0.9-1.2-2.1-1.2-3.2
	c-0.1-1.2,0.4-2.4,1.2-3.4c0.8-0.9,2-1.4,3.2-1.3c1.2-0.1,2.3,0.4,3.1,1.3C96.4,21.8,96.8,23,96.8,24.1z M94.8,24.2
	c0-0.7-0.2-1.5-0.5-2.1c-0.3-0.7-1-1.1-1.8-1c-0.7,0-1.4,0.4-1.8,1c-0.4,0.6-0.5,1.4-0.5,2.1c0,0.7,0.2,1.5,0.5,2.1
	c0.3,0.7,1,1.1,1.8,1.1c0.7,0,1.4-0.4,1.8-1.1C94.6,25.7,94.8,24.9,94.8,24.2L94.8,24.2z"/>
<path class="st1" d="M103.1,21.5c-0.2,0-0.4-0.1-0.6-0.1c-0.6,0-1.2,0.3-1.6,0.8c-0.3,0.5-0.5,1.1-0.5,1.7v4.6h-2v-6
	c0-1,0-1.9-0.1-2.8h1.7l0.1,1.7l0,0c0.2-0.5,0.5-1,1-1.4c0.4-0.3,0.9-0.5,1.4-0.5c0.2,0,0.3,0,0.5,0L103.1,21.5z"/>
<path class="st1" d="M111.9,23.8c0,0.3,0,0.6-0.1,0.9h-5.9c0,0.8,0.3,1.5,0.8,2c0.5,0.4,1.2,0.6,1.9,0.6c0.8,0,1.6-0.1,2.4-0.4
	l0.3,1.4c-1,0.4-2,0.6-3,0.5c-1.2,0.1-2.4-0.4-3.2-1.2c-0.8-0.9-1.2-2-1.2-3.2c0-1.2,0.4-2.4,1.1-3.3c0.7-0.9,1.9-1.5,3.1-1.4
	c1.1-0.1,2.2,0.5,2.9,1.4C111.7,21.8,111.9,22.8,111.9,23.8z M110,23.3c0-0.5-0.1-1.1-0.4-1.5c-0.3-0.5-0.9-0.8-1.6-0.8
	c-0.6,0-1.2,0.3-1.6,0.8c-0.3,0.4-0.5,1-0.6,1.5L110,23.3z"/>
<g>
	<g>
		<path class="st1" d="M43.1,6.5h-1.8v5.3h-1V6.5h-1.7V5.7h4.5V6.5z"/>
		<path class="st1" d="M48,9.4c0,0.2,0,0.3,0,0.4h-3c0,0.4,0.2,0.8,0.4,1c0.2,0.2,0.6,0.3,1,0.3c0.4,0,0.8-0.1,1.2-0.2l0.2,0.7
			c-0.4,0.2-0.9,0.3-1.5,0.3c-0.7,0-1.2-0.2-1.6-0.6c-0.4-0.4-0.6-0.9-0.6-1.6C44,9,44.2,8.4,44.6,8c0.4-0.5,0.9-0.7,1.5-0.7
			c0.6,0,1.1,0.2,1.4,0.7C47.8,8.4,48,8.8,48,9.4z M47,9.1c0-0.3-0.1-0.5-0.2-0.8C46.7,8.1,46.4,8,46,8c-0.3,0-0.6,0.1-0.8,0.4
			C45.1,8.6,45,8.8,45,9.1C45,9.1,47,9.1,47,9.1z M47.4,5.5l-1.1,1.3h-0.7l0.8-1.3H47.4z"/>
		<path class="st1" d="M50.4,11.8h-1V5.4h1V11.8z"/>
		<path class="st1" d="M55.8,9.4c0,0.2,0,0.3,0,0.4h-3c0,0.4,0.2,0.8,0.4,1c0.2,0.2,0.6,0.3,1,0.3c0.4,0,0.8-0.1,1.2-0.2l0.2,0.7
			c-0.4,0.2-0.9,0.3-1.5,0.3c-0.7,0-1.2-0.2-1.6-0.6c-0.4-0.4-0.6-0.9-0.6-1.6C51.8,9,52,8.4,52.4,8c0.4-0.5,0.9-0.7,1.5-0.7
			c0.6,0,1.1,0.2,1.4,0.7C55.6,8.4,55.8,8.8,55.8,9.4z M54.8,9.1c0-0.3-0.1-0.5-0.2-0.8C54.5,8.1,54.2,8,53.9,8
			c-0.3,0-0.6,0.1-0.8,0.4c-0.2,0.2-0.3,0.5-0.3,0.8C52.8,9.1,54.8,9.1,54.8,9.1z M55.2,5.5l-1.1,1.3h-0.7l0.8-1.3H55.2z"/>
		<path class="st1" d="M60.4,7.5l-0.2,0.7c-0.2-0.1-0.5-0.2-0.9-0.2c-0.4,0-0.8,0.1-1,0.4c-0.3,0.3-0.4,0.7-0.4,1.1
			c0,0.5,0.1,0.8,0.4,1.1c0.3,0.3,0.6,0.4,1,0.4c0.3,0,0.6-0.1,0.9-0.2l0.1,0.7c-0.3,0.2-0.7,0.2-1.2,0.2c-0.7,0-1.2-0.2-1.6-0.6
			s-0.6-1-0.6-1.6c0-0.7,0.2-1.3,0.6-1.7c0.4-0.4,1-0.7,1.7-0.7C59.7,7.3,60.1,7.4,60.4,7.5z"/>
		<path class="st1" d="M65.6,11.8h-1V9.3c0-0.8-0.3-1.2-0.9-1.2c-0.5,0-0.8,0.2-0.9,0.7c0,0.1,0,0.2,0,0.4v2.7h-1V5.4h1V8h0
			C63,7.5,63.5,7.3,64,7.3c0.4,0,0.7,0.1,1,0.4c0.3,0.3,0.5,0.8,0.5,1.5C65.6,9.2,65.6,11.8,65.6,11.8z"/>
		<path class="st1" d="M70.6,11.8h-0.9l-0.1-0.5h0c-0.3,0.4-0.7,0.6-1.3,0.6c-0.4,0-0.8-0.1-1-0.4C67.1,11.3,67,11,67,10.6
			c0-0.5,0.2-1,0.7-1.2c0.5-0.3,1.1-0.4,1.9-0.4V8.9c0-0.6-0.3-0.9-0.9-0.9c-0.4,0-0.8,0.1-1.2,0.3l-0.2-0.6
			c0.4-0.3,0.9-0.4,1.5-0.4c1.2,0,1.7,0.6,1.7,1.8v1.6C70.5,11.2,70.6,11.6,70.6,11.8z M69.6,10.3V9.6c-1.1,0-1.6,0.3-1.6,0.9
			c0,0.2,0.1,0.4,0.2,0.5c0.1,0.1,0.3,0.2,0.5,0.2c0.2,0,0.4-0.1,0.6-0.2c0.2-0.1,0.3-0.3,0.3-0.5C69.6,10.4,69.6,10.4,69.6,10.3z"
			/>
		<path class="st1" d="M74.6,8.3c-0.1,0-0.2,0-0.3,0c-0.3,0-0.6,0.1-0.8,0.4c-0.2,0.2-0.2,0.5-0.2,0.9v2.3h-1l0-3c0-0.5,0-1,0-1.4
			h0.9l0,0.8h0c0.1-0.3,0.3-0.5,0.5-0.7c0.2-0.2,0.5-0.2,0.7-0.2c0.1,0,0.2,0,0.2,0V8.3z"/>
		<path class="st1" d="M79.7,7.4c0,0.4,0,0.8,0,1.3v2.5c0,1-0.2,1.6-0.6,2c-0.4,0.4-0.9,0.5-1.6,0.5c-0.6,0-1.1-0.1-1.5-0.3l0.2-0.8
			c0.4,0.2,0.8,0.3,1.3,0.3c0.9,0,1.3-0.5,1.3-1.4v-0.4h0c-0.3,0.4-0.7,0.7-1.3,0.7c-0.5,0-1-0.2-1.3-0.6c-0.3-0.4-0.5-0.9-0.5-1.5
			c0-0.7,0.2-1.3,0.6-1.7c0.4-0.4,0.8-0.6,1.4-0.6c0.6,0,1,0.2,1.3,0.7h0l0-0.6L79.7,7.4L79.7,7.4z M78.7,9.9V9.1
			c0-0.3-0.1-0.6-0.3-0.8c-0.2-0.2-0.4-0.3-0.7-0.3c-0.3,0-0.6,0.1-0.8,0.4c-0.2,0.3-0.3,0.7-0.3,1.1c0,0.4,0.1,0.8,0.3,1
			c0.2,0.3,0.5,0.4,0.8,0.4c0.2,0,0.4-0.1,0.6-0.2s0.3-0.3,0.4-0.5C78.7,10.2,78.7,10.1,78.7,9.9z"/>
		<path class="st1" d="M85.1,9.4c0,0.2,0,0.3,0,0.4h-3c0,0.4,0.2,0.8,0.4,1c0.2,0.2,0.6,0.3,1,0.3c0.4,0,0.8-0.1,1.2-0.2l0.2,0.7
			c-0.4,0.2-0.9,0.3-1.5,0.3c-0.7,0-1.2-0.2-1.6-0.6c-0.4-0.4-0.6-0.9-0.6-1.6c0-0.7,0.2-1.2,0.5-1.7c0.4-0.5,0.9-0.7,1.5-0.7
			c0.6,0,1.1,0.2,1.4,0.7C85,8.4,85.1,8.8,85.1,9.4z M84.2,9.1c0-0.3-0.1-0.5-0.2-0.8C83.8,8.1,83.5,8,83.2,8
			c-0.3,0-0.6,0.1-0.8,0.4c-0.2,0.2-0.3,0.5-0.3,0.8C82.1,9.1,84.2,9.1,84.2,9.1z"/>
		<path class="st1" d="M88.9,8.3c-0.1,0-0.2,0-0.3,0c-0.3,0-0.6,0.1-0.8,0.4c-0.2,0.2-0.2,0.5-0.2,0.9v2.3h-1l0-3c0-0.5,0-1,0-1.4
			h0.9l0,0.8h0c0.1-0.3,0.3-0.5,0.5-0.7c0.2-0.2,0.5-0.2,0.7-0.2c0.1,0,0.2,0,0.2,0L88.9,8.3L88.9,8.3z"/>
		<path class="st1" d="M96.7,11.8h-0.9l0-0.7h0c-0.3,0.5-0.8,0.8-1.4,0.8c-0.5,0-1-0.2-1.3-0.6c-0.4-0.4-0.5-1-0.5-1.6
			c0-0.7,0.2-1.3,0.6-1.7c0.4-0.4,0.8-0.6,1.4-0.6c0.6,0,1,0.2,1.2,0.6h0V5.4h1v5.3C96.7,11.1,96.7,11.4,96.7,11.8z M95.7,9.9V9.2
			c0-0.1,0-0.2,0-0.3c-0.1-0.2-0.2-0.4-0.4-0.6c-0.2-0.2-0.4-0.2-0.7-0.2c-0.4,0-0.7,0.1-0.9,0.4c-0.2,0.3-0.3,0.7-0.3,1.1
			c0,0.4,0.1,0.8,0.3,1.1c0.2,0.3,0.5,0.4,0.9,0.4c0.3,0,0.6-0.1,0.8-0.4C95.6,10.5,95.7,10.3,95.7,9.9z"/>
		<path class="st1" d="M101.7,11.8h-0.9l-0.1-0.5h0c-0.3,0.4-0.7,0.6-1.3,0.6c-0.4,0-0.8-0.1-1-0.4c-0.2-0.2-0.3-0.5-0.3-0.9
			c0-0.5,0.2-1,0.7-1.2c0.5-0.3,1.1-0.4,1.9-0.4V8.9c0-0.6-0.3-0.9-0.9-0.9c-0.4,0-0.8,0.1-1.2,0.3l-0.2-0.6
			c0.4-0.3,0.9-0.4,1.5-0.4c1.2,0,1.7,0.6,1.7,1.8v1.6C101.7,11.2,101.7,11.6,101.7,11.8z M100.7,10.3V9.6c-1.1,0-1.6,0.3-1.6,0.9
			c0,0.2,0.1,0.4,0.2,0.5s0.3,0.2,0.5,0.2c0.2,0,0.4-0.1,0.6-0.2c0.2-0.1,0.3-0.3,0.3-0.5C100.7,10.4,100.7,10.4,100.7,10.3z"/>
		<path class="st1" d="M107.2,11.8h-1V9.3c0-0.8-0.3-1.2-0.9-1.2c-0.3,0-0.5,0.1-0.7,0.3c-0.2,0.2-0.3,0.5-0.3,0.8v2.6h-1V8.6
			c0-0.4,0-0.8,0-1.3h0.9l0,0.7h0c0.1-0.2,0.3-0.4,0.5-0.5c0.3-0.2,0.6-0.2,0.9-0.2c0.4,0,0.8,0.1,1,0.4c0.3,0.3,0.5,0.8,0.5,1.5
			C107.2,9.2,107.2,11.8,107.2,11.8z"/>
		<path class="st1" d="M111.7,10.5c0,0.4-0.2,0.7-0.5,1c-0.3,0.2-0.7,0.4-1.3,0.4c-0.5,0-0.9-0.1-1.3-0.3l0.2-0.7
			c0.3,0.2,0.7,0.3,1.1,0.3c0.5,0,0.8-0.2,0.8-0.6c0-0.2-0.1-0.3-0.2-0.4c-0.1-0.1-0.3-0.2-0.6-0.3c-0.8-0.3-1.2-0.7-1.2-1.3
			c0-0.4,0.1-0.7,0.4-1c0.3-0.3,0.7-0.4,1.2-0.4c0.4,0,0.8,0.1,1.1,0.3l-0.2,0.7C111,8.1,110.7,8,110.4,8c-0.2,0-0.4,0-0.5,0.1
			c-0.1,0.1-0.2,0.2-0.2,0.4c0,0.2,0.1,0.3,0.2,0.4c0.1,0.1,0.3,0.2,0.6,0.3C111.3,9.5,111.7,9.9,111.7,10.5z"/>
	</g>
</g>
</svg>
