<svg xmlns="http://www.w3.org/2000/svg" width="50" height="50" viewBox="0 0 50 50"><defs><style>.cls-1{fill:#fff;}</style></defs><title>Plan de travail 1</title><g id="Calque_1" data-name="Calque 1"><path class="cls-1" d="M25,1A24,24,0,1,1,1,25,24,24,0,0,1,25,1m0-1A25,25,0,1,0,50,25,25,25,0,0,0,25,0Z"/><path class="cls-1" d="M31.76,11.5H28.25c-3.92,0-6.47,2.61-6.47,6.64V21.2H18.27a.56.56,0,0,0-.56.56v4.43a.56.56,0,0,0,.56.56h3.51V37.94a.56.56,0,0,0,.56.56h4.59a.57.57,0,0,0,.57-.56V26.75h4.12a.56.56,0,0,0,.56-.56V21.76a.58.58,0,0,0-.56-.56H27.47V18.62c0-1.23.31-1.88,1.9-1.88h2.36a.56.56,0,0,0,.56-.56V12.06A.53.53,0,0,0,31.76,11.5Z"/></g></svg>