<svg id="Calque_1" data-name="Calque 1" xmlns="http://www.w3.org/2000/svg" width="50" height="50" viewBox="0 0 50 50"><defs><style>.cls-1{fill:#fff;}</style></defs><title>Plan de travail 1</title><path class="cls-1" d="M25,1A24,24,0,1,1,1,25,24,24,0,0,1,25,1m0-1A25,25,0,1,0,50,25,25,25,0,0,0,25,0Z"/><path class="cls-1" d="M25,20.76h0A4.22,4.22,0,0,0,20.78,25v0A4.24,4.24,0,1,0,25,20.76Z"/><path class="cls-1" d="M32,11.5H18.08a6.56,6.56,0,0,0-6.56,6.56V31.94a6.56,6.56,0,0,0,6.56,6.56H32a6.56,6.56,0,0,0,6.56-6.56V18.06A6.56,6.56,0,0,0,32,11.5ZM25,31.56A6.56,6.56,0,1,1,31.58,25,6.56,6.56,0,0,1,25,31.56Zm7.71-12.35a1.54,1.54,0,0,1,0-3.08h0a1.54,1.54,0,0,1,0,3.08Z"/></svg>