<?xml version="1.0" encoding="utf-8"?>
<!-- Generator: Adobe Illustrator 21.0.0, SVG Export Plug-In . SVG Version: 6.00 Build 0)  -->
<svg version="1.1" id="US_UK_Download_on_the" xmlns="http://www.w3.org/2000/svg" xmlns:xlink="http://www.w3.org/1999/xlink" width="123.3" height="36.1"
	 x="0px" y="0px" viewBox="0 0 123.3 36.1" style="enable-background:new 0 0 123.3 36.1;" xml:space="preserve">
<style type="text/css">
	.st0{fill:none;stroke:#FFFFFF;stroke-miterlimit:10;}
	.st1{fill:#FFFFFF;}
	.st2{fill:#FFFFFF;stroke:#FFFFFF;stroke-width:0.2;stroke-miterlimit:10;}
</style>
<title>Plan de travail 1</title>
<path class="st0" d="M122.8,32.1c0,1.9-1.6,3.5-3.5,3.5c0,0,0,0,0,0H4c-1.9,0-3.5-1.6-3.5-3.5V4c0-1.9,1.6-3.5,3.5-3.5h115.3
	c1.9,0,3.5,1.6,3.5,3.5V32.1z"/>
<path class="st1" d="M64.1,20.6c-2.1,0-3.9,1.8-3.8,3.9c0,2.1,1.8,3.9,3.9,3.8c2.1,0,3.8-1.8,3.8-3.9c0-2.1-1.6-3.8-3.8-3.9
	c0,0,0,0,0,0C64.2,20.6,64.1,20.6,64.1,20.6z M64.1,26.8c-1.3,0.1-2.4-0.9-2.5-2.2s0.9-2.4,2.2-2.5c1.3-0.1,2.4,0.9,2.5,2.2
	c0,0.1,0,0.1,0,0.2C66.3,25.7,65.4,26.8,64.1,26.8C64.1,26.8,64.1,26.8,64.1,26.8L64.1,26.8z M55.6,20.6c-2.1,0-3.9,1.7-3.9,3.9
	s1.7,3.9,3.9,3.9s3.9-1.7,3.9-3.9c0-2.1-1.6-3.8-3.8-3.9c0,0,0,0,0,0H55.6z M55.6,26.8c-1.3,0.1-2.4-0.9-2.5-2.2
	c-0.1-1.3,0.9-2.4,2.2-2.5c1.3-0.1,2.4,0.9,2.5,2.2v0.2C57.8,25.7,56.9,26.8,55.6,26.8C55.6,26.8,55.6,26.8,55.6,26.8L55.6,26.8
	L55.6,26.8z M45.5,21.8v1.6h3.9c-0.1,0.8-0.4,1.5-0.9,2.1c-0.8,0.8-1.9,1.2-3,1.2c-2.4,0-4.3-2-4.3-4.5c0-2.2,1.7-4,3.9-4.3
	c0.1,0,0.3,0,0.4,0c1.1,0,2.2,0.4,3,1.2l1.1-1.2c-1.1-1.1-2.6-1.7-4.1-1.7c-3.3-0.1-6.1,2.5-6.2,5.8s2.5,6.1,5.8,6.2h0.5
	c2.9,0.2,5.4-2.1,5.6-5c0-0.2,0-0.4,0-0.5c0-0.3,0-0.7-0.1-1L45.5,21.8z M86.8,23.1c-0.5-1.9-2.5-3-4.4-2.5c-1.6,0.5-2.7,2-2.6,3.6
	v0.2c0,2.1,1.6,3.8,3.7,3.9h0.1c1.3,0,2.5-0.6,3.2-1.7l-1.3-0.9c-0.4,0.7-1.1,1.1-1.9,1.1c-0.8,0-1.5-0.4-1.9-1.2l5.3-2.2L86.8,23.1
	z M81.5,24.4c-0.1-1.2,0.8-2.2,2-2.3c0,0,0,0,0,0l0,0c0.6,0,1.2,0.3,1.4,0.8L81.5,24.4z M77.3,28.1H79V16.7h-1.7L77.3,28.1z
	 M74.5,21.5L74.5,21.5c-0.6-0.6-1.3-0.9-2.1-0.9c-2.1,0.1-3.8,1.9-3.7,4.1c0.1,2,1.7,3.6,3.7,3.7c0.8,0,1.5-0.3,2-0.9h0.1V28
	c0.1,1.1-0.6,2.1-1.7,2.3c-0.1,0-0.2,0-0.4,0c-0.9,0-1.7-0.5-2-1.4L69,29.5c0.6,1.4,1.9,2.3,3.4,2.3c2,0,3.6-1.2,3.6-4v-6.9h-1.6
	V21.5z M72.5,26.8c-1.3-0.1-2.3-1.3-2.1-2.6c0.1-1.1,1-2,2.1-2.1c1.2,0.1,2.1,1.1,2.1,2.3v0.1C74.7,25.7,73.8,26.7,72.5,26.8
	C72.6,26.8,72.6,26.8,72.5,26.8L72.5,26.8L72.5,26.8z M94.7,16.7h-4v11.4h1.7v-4.3h2.4c2,0.1,3.6-1.3,3.8-3.3s-1.3-3.6-3.3-3.8
	L94.7,16.7L94.7,16.7z M94.7,22.2h-2.3v-3.9h2.4c1.1,0.2,1.8,1.3,1.5,2.4C96.2,21.5,95.6,22.1,94.7,22.2L94.7,22.2z M105.2,20.5
	c-1.3-0.1-2.4,0.6-3,1.7l1.5,0.6c0.6-0.9,1.7-1.1,2.6-0.5c0.4,0.3,0.7,0.7,0.8,1.1v0.1c-0.5-0.3-1.2-0.4-1.8-0.4
	c-1.6,0-3.3,0.9-3.3,2.6c0.1,1.5,1.3,2.6,2.8,2.5h0.1c0.9,0.1,1.7-0.3,2.2-1.1l0,0v0.9h1.6v-4.4c0-1.7-1.4-3.1-3.1-3.2c0,0,0,0,0,0
	L105.2,20.5L105.2,20.5z M105,26.8c-0.6,0-1.3-0.3-1.3-1c0-0.9,1-1.2,1.8-1.2c0.5,0,1.1,0.1,1.6,0.4C106.9,26,106.1,26.8,105,26.8
	L105,26.8z M114.7,20.8l-2,4.9l0,0l-2-4.9h-1.8l3,6.9l-1.7,3.8h1.9l4.7-10.7H114.7z M99.4,28.1h1.7V16.7h-1.7V28.1z"/>
<path class="st1" d="M26.2,22.8l-3.3-3.3L12,30.4c0.4,0.1,0.9,0.1,1.3-0.2L26.2,22.8z"/>
<path class="st1" d="M11.1,8.9v20.2c0,0.3,0.1,0.6,0.3,0.9l11.1-11l-11-10.9C11.3,8.3,11.1,8.6,11.1,8.9z"/>
<path class="st1" d="M26.2,15.2L13.3,7.8c-0.4-0.3-0.8-0.3-1.3-0.2l10.9,10.9L26.2,15.2z"/>
<path class="st1" d="M31,20.1c0.5-0.2,0.8-0.6,0.9-1.1c-0.1-0.5-0.4-0.9-0.9-1.1l-4.3-2.4L23.2,19l3.5,3.5L31,20.1z"/>
<g>
	<path class="st2" d="M39.3,12.2v-6h1.8c0.9,0,1.7,0.3,2.2,0.8c0.6,0.6,0.8,1.3,0.8,2.2c0,0.9-0.3,1.6-0.8,2.2
		c-0.6,0.6-1.3,0.8-2.2,0.8H39.3z M40,11.4h1.1c0.7,0,1.2-0.2,1.6-0.6c0.4-0.4,0.6-1,0.6-1.7c0-0.7-0.2-1.3-0.6-1.7
		c-0.4-0.4-1-0.6-1.6-0.6H40V11.4z"/>
	<path class="st2" d="M45.2,12.2v-6H46v6H45.2z"/>
	<path class="st2" d="M49.1,12.3c-0.4,0-0.9-0.1-1.3-0.4c-0.4-0.3-0.7-0.7-0.8-1.2l0.7-0.3c0.1,0.3,0.3,0.6,0.5,0.8
		c0.3,0.2,0.6,0.3,0.9,0.3c0.3,0,0.6-0.1,0.9-0.3s0.4-0.4,0.4-0.7c0-0.3-0.1-0.6-0.4-0.8c-0.2-0.2-0.6-0.4-1.1-0.5
		c-0.5-0.2-0.9-0.4-1.2-0.6c-0.3-0.3-0.4-0.6-0.4-1c0-0.4,0.2-0.8,0.5-1.1C48,6.2,48.5,6,49,6c0.5,0,0.9,0.1,1.2,0.4
		c0.3,0.3,0.5,0.5,0.6,0.8l-0.7,0.3C50.1,7.3,50,7.2,49.8,7c-0.2-0.2-0.5-0.2-0.8-0.2c-0.3,0-0.5,0.1-0.8,0.2
		C48.1,7.2,48,7.4,48,7.6c0,0.2,0.1,0.4,0.3,0.6c0.2,0.2,0.5,0.3,0.9,0.4c0.3,0.1,0.5,0.2,0.7,0.3C50,9,50.2,9.1,50.4,9.2
		c0.2,0.1,0.4,0.3,0.5,0.6s0.2,0.5,0.2,0.8c0,0.3-0.1,0.6-0.2,0.8c-0.1,0.2-0.3,0.4-0.5,0.5c-0.2,0.1-0.4,0.2-0.6,0.3
		C49.5,12.3,49.3,12.3,49.1,12.3z"/>
	<path class="st2" d="M52.9,12.2h-0.8v-6h2c0.5,0,0.9,0.2,1.3,0.5c0.4,0.3,0.6,0.8,0.6,1.3c0,0.5-0.2,0.9-0.6,1.3
		c-0.4,0.3-0.8,0.5-1.3,0.5h-1.3V12.2z M52.9,9h1.3c0.3,0,0.6-0.1,0.8-0.3c0.2-0.2,0.3-0.5,0.3-0.7S55.2,7.4,55,7.2
		c-0.2-0.2-0.5-0.3-0.8-0.3h-1.3V9z"/>
	<path class="st2" d="M62,11.4c-0.6,0.6-1.3,0.9-2.2,0.9c-0.9,0-1.6-0.3-2.2-0.9c-0.6-0.6-0.9-1.3-0.9-2.2s0.3-1.6,0.9-2.2
		C58.2,6.3,58.9,6,59.8,6c0.9,0,1.6,0.3,2.2,0.9c0.6,0.6,0.9,1.3,0.9,2.2C62.8,10,62.6,10.8,62,11.4z M58.1,10.9
		c0.4,0.4,1,0.7,1.6,0.7c0.6,0,1.2-0.2,1.6-0.7c0.4-0.4,0.7-1,0.7-1.7s-0.2-1.3-0.7-1.7c-0.4-0.4-1-0.7-1.6-0.7
		c-0.6,0-1.2,0.2-1.6,0.7c-0.4,0.4-0.7,1-0.7,1.7S57.7,10.4,58.1,10.9z"/>
	<path class="st2" d="M63.9,12.2v-6h0.9l2.9,4.7h0l0-1.2V6.2h0.8v6h-0.8l-3.1-4.9h0l0,1.2v3.7H63.9z"/>
	<path class="st2" d="M69.9,12.2v-6h0.8v6H69.9z"/>
	<path class="st2" d="M72.1,12.2v-6h2.2c0.5,0,0.9,0.2,1.2,0.5C75.8,6.9,76,7.3,76,7.8c0,0.3-0.1,0.5-0.2,0.8
		c-0.1,0.2-0.3,0.4-0.6,0.5v0c0.3,0.1,0.5,0.3,0.7,0.5c0.2,0.2,0.3,0.5,0.3,0.9c0,0.5-0.2,0.9-0.5,1.2c-0.4,0.3-0.8,0.5-1.3,0.5
		H72.1z M72.8,8.7h1.4c0.3,0,0.5-0.1,0.7-0.3c0.2-0.2,0.3-0.4,0.3-0.6S75.1,7.4,75,7.2c-0.2-0.2-0.4-0.3-0.7-0.3h-1.4V8.7z
		 M72.8,11.4h1.6c0.3,0,0.5-0.1,0.7-0.3c0.2-0.2,0.3-0.4,0.3-0.7c0-0.2-0.1-0.5-0.3-0.7c-0.2-0.2-0.4-0.3-0.7-0.3h-1.5V11.4z"/>
	<path class="st2" d="M77.2,12.2v-6H78v5.3h2.6v0.7H77.2z"/>
	<path class="st2" d="M85.1,6.9h-2.7v1.9h2.5v0.7h-2.5v1.9h2.7v0.7h-3.5v-6h3.5V6.9z"/>
	<path class="st2" d="M89.7,12.3c-0.4,0-0.9-0.1-1.3-0.4c-0.4-0.3-0.7-0.7-0.8-1.2l0.7-0.3c0.1,0.3,0.3,0.6,0.5,0.8
		c0.3,0.2,0.6,0.3,0.9,0.3c0.3,0,0.6-0.1,0.9-0.3c0.2-0.2,0.4-0.4,0.4-0.7c0-0.3-0.1-0.6-0.4-0.8c-0.2-0.2-0.6-0.4-1.1-0.5
		c-0.5-0.2-0.9-0.4-1.2-0.6c-0.3-0.3-0.4-0.6-0.4-1c0-0.4,0.2-0.8,0.5-1.1C88.7,6.2,89.1,6,89.7,6c0.5,0,0.9,0.1,1.2,0.4
		c0.3,0.3,0.5,0.5,0.6,0.8l-0.7,0.3c-0.1-0.2-0.2-0.4-0.4-0.5c-0.2-0.2-0.5-0.2-0.8-0.2c-0.3,0-0.5,0.1-0.8,0.2
		c-0.2,0.2-0.3,0.4-0.3,0.6c0,0.2,0.1,0.4,0.3,0.6c0.2,0.2,0.5,0.3,0.9,0.4c0.3,0.1,0.5,0.2,0.7,0.3c0.2,0.1,0.4,0.2,0.6,0.4
		c0.2,0.1,0.4,0.3,0.5,0.6c0.1,0.2,0.2,0.5,0.2,0.8c0,0.3-0.1,0.6-0.2,0.8c-0.1,0.2-0.3,0.4-0.5,0.5c-0.2,0.1-0.4,0.2-0.6,0.3
		C90.2,12.3,90,12.3,89.7,12.3z"/>
	<path class="st2" d="M94.9,12.3c-0.7,0-1.2-0.2-1.6-0.7c-0.4-0.4-0.6-1-0.6-1.7V6.2h0.8V10c0,0.5,0.1,0.9,0.4,1.2
		c0.2,0.3,0.6,0.4,1.1,0.4c0.5,0,0.8-0.1,1.1-0.4c0.2-0.3,0.4-0.7,0.4-1.2V6.2h0.8v3.8c0,0.7-0.2,1.3-0.6,1.7
		C96.1,12.1,95.6,12.3,94.9,12.3z"/>
	<path class="st2" d="M98.4,12.2v-6h2c0.5,0,0.9,0.2,1.3,0.5c0.4,0.3,0.6,0.8,0.6,1.3c0,0.4-0.1,0.8-0.4,1.1c-0.3,0.3-0.6,0.5-1,0.6
		l0,0l1.7,2.4v0h-0.9L100,9.7h-0.9v2.4H98.4z M99.2,9h1.2c0.3,0,0.6-0.1,0.8-0.3c0.2-0.2,0.3-0.5,0.3-0.8c0-0.3-0.1-0.5-0.3-0.7
		c-0.2-0.2-0.5-0.3-0.8-0.3h-1.3V9z"/>
</g>
</svg>
