<svg xmlns="http://www.w3.org/2000/svg" width="50" height="50" viewBox="0 0 50 50"><defs><style>.cls-1{fill:#fff;}</style></defs><title>Plan de travail 1</title><g id="Calque_1" data-name="Calque 1"><path class="cls-1" d="M25,1A24,24,0,1,1,1,25,24,24,0,0,1,25,1m0-1A25,25,0,1,0,50,25,25,25,0,0,0,25,0Z"/><path id="Twitter" class="cls-1" d="M37.76,14.17a10.94,10.94,0,0,1-3.52,1.37,5.48,5.48,0,0,0-4.05-1.79,5.61,5.61,0,0,0-5.53,5.68,5.43,5.43,0,0,0,.14,1.29,15.55,15.55,0,0,1-11.42-5.93,5.78,5.78,0,0,0,1.71,7.58,5.29,5.29,0,0,1-2.51-.71v.07A5.64,5.64,0,0,0,17,27.3a5.44,5.44,0,0,1-2.5.1,5.56,5.56,0,0,0,5.17,4,10.94,10.94,0,0,1-6.88,2.43,11.41,11.41,0,0,1-1.32-.08A15.4,15.4,0,0,0,20,36.25c10.19,0,15.76-8.65,15.76-16.16,0-.25,0-.49,0-.74a11.37,11.37,0,0,0,2.76-2.94,11,11,0,0,1-3.18.9,5.73,5.73,0,0,0,2.44-3.14"/></g></svg>