<svg xmlns="http://www.w3.org/2000/svg" width="50" height="50" viewBox="0 0 50 50"><defs><style>.cls-1{fill:#fff;}</style></defs><title>Plan de travail 1</title><g id="Calque_1" data-name="Calque 1"><path id="Youtube" class="cls-1" d="M21.7,29.18v-9l8.64,4.54Zm19-10.62a7,7,0,0,0-1.27-3.2A4.57,4.57,0,0,0,36.2,14C31.72,13.67,25,13.67,25,13.67h0s-6.71,0-11.19.32a4.57,4.57,0,0,0-3.21,1.37,7,7,0,0,0-1.27,3.2A48.85,48.85,0,0,0,9,23.77v2.45a48.85,48.85,0,0,0,.32,5.21,7,7,0,0,0,1.27,3.2A5.36,5.36,0,0,0,14.12,36c2.56.25,10.88.32,10.88.32s6.72,0,11.2-.33a4.57,4.57,0,0,0,3.21-1.37,7,7,0,0,0,1.27-3.2A48.85,48.85,0,0,0,41,26.22V23.77a48.85,48.85,0,0,0-.32-5.21Z"/><path class="cls-1" d="M25,1A24,24,0,1,1,1,25,24,24,0,0,1,25,1m0-1A25,25,0,1,0,50,25,25,25,0,0,0,25,0Z"/></g></svg>